<svg width="12" height="12" viewBox="0 0 12 12" fill="none" xmlns="http://www.w3.org/2000/svg">
<path d="M1 2.83696C1 2.58615 1.10536 2.34562 1.29289 2.16828C1.48043 1.99093 1.73478 1.8913 2 1.8913H10C10.2652 1.8913 10.5196 1.99093 10.7071 2.16828C10.8946 2.34562 11 2.58615 11 2.83696V8.51087C11 8.76167 10.8946 9.0022 10.7071 9.17955C10.5196 9.35689 10.2652 9.45652 10 9.45652H2C1.73478 9.45652 1.48043 9.35689 1.29289 9.17955C1.10536 9.0022 1 8.76167 1 8.51087V2.83696Z" stroke="#A56FFF" stroke-width="2" stroke-linecap="round" stroke-linejoin="round"/>
<path d="M1.5 2.36413L4.6715 5.02992C5.03761 5.33767 5.51041 5.50767 6.00025 5.50767C6.49009 5.50767 6.96289 5.33767 7.329 5.02992L10.5 2.36413" stroke="#A56FFF" stroke-width="2" stroke-linejoin="round"/>
</svg>
