<svg width="12" height="12" viewBox="0 0 12 12" fill="none" xmlns="http://www.w3.org/2000/svg">
<g clip-path="url(#clip0_25_22)">
<path fill-rule="evenodd" clip-rule="evenodd" d="M6 0C2.685 0 0 2.53908 0 5.67391C0 8.18462 1.7175 10.3052 4.1025 11.057C4.4025 11.1067 4.515 10.9365 4.515 10.7875C4.515 10.6528 4.5075 10.206 4.5075 9.73076C3 9.99318 2.61 9.38323 2.49 9.06408C2.4225 8.90095 2.13 8.39739 1.875 8.26264C1.665 8.15625 1.365 7.89383 1.8675 7.88674C2.34 7.87965 2.6775 8.2981 2.79 8.46832C3.33 9.32649 4.1925 9.08535 4.5375 8.93641C4.59 8.56761 4.7475 8.31938 4.92 8.17753C3.585 8.03568 2.19 7.5463 2.19 5.37603C2.19 4.75899 2.4225 4.24834 2.805 3.85117C2.745 3.70932 2.535 3.12774 2.865 2.34758C2.865 2.34758 3.3675 2.19864 4.515 2.92916C4.995 2.80149 5.505 2.73766 6.015 2.73766C6.525 2.73766 7.035 2.80149 7.515 2.92916C8.6625 2.19155 9.165 2.34758 9.165 2.34758C9.495 3.12774 9.285 3.70932 9.225 3.85117C9.6075 4.24834 9.84 4.7519 9.84 5.37603C9.84 7.5534 8.4375 8.03568 7.1025 8.17753C7.32 8.35484 7.5075 8.69527 7.5075 9.2272C7.5075 9.98609 7.5 10.596 7.5 10.7875C7.5 10.9365 7.6125 11.1138 7.9125 11.057C9.10359 10.6768 10.1386 9.95284 10.8718 8.98718C11.6051 8.02152 11.9996 6.86273 12 5.67391C12 2.53908 9.315 0 6 0Z" fill="#A56FFF"/>
</g>
<defs>
<clipPath id="clip0_25_22">
<rect width="12" height="11.3478" fill="white"/>
</clipPath>
</defs>
</svg>
