<svg width="12" height="12" viewBox="0 0 12 12" fill="none" xmlns="http://www.w3.org/2000/svg">
<path fill-rule="evenodd" clip-rule="evenodd" d="M0.5 1.34188C0.5 1.11139 0.596823 0.890345 0.769169 0.727365C0.941515 0.564386 1.17527 0.472825 1.419 0.472825H10.58C10.7008 0.472639 10.8204 0.494983 10.9321 0.53858C11.0437 0.582176 11.1452 0.646168 11.2306 0.726892C11.3161 0.807616 11.3839 0.903486 11.4301 1.00901C11.4763 1.11454 11.5001 1.22766 11.5 1.34188V10.005C11.5001 10.1192 11.4764 10.2324 11.4303 10.338C11.3841 10.4436 11.3164 10.5395 11.231 10.6203C11.1456 10.7011 11.0442 10.7652 10.9326 10.8089C10.8209 10.8526 10.7013 10.8751 10.5805 10.875H1.419C1.29827 10.875 1.17873 10.8525 1.0672 10.8088C0.955668 10.7651 0.854336 10.701 0.768992 10.6203C0.683649 10.5395 0.615966 10.4437 0.569811 10.3382C0.523657 10.2327 0.499934 10.1196 0.5 10.0055V1.34188ZM4.854 4.43889H6.3435V5.14624C6.5585 4.73961 7.1085 4.37364 7.935 4.37364C9.5195 4.37364 9.895 5.18359 9.895 6.66968V9.42248H8.2915V7.00823C8.2915 6.16187 8.0765 5.68431 7.5305 5.68431C6.773 5.68431 6.458 6.19922 6.458 7.00823V9.42248H4.854V4.43889ZM2.104 9.3577H3.708V4.37364H2.104V9.35723V9.3577ZM3.9375 2.74806C3.94052 2.87794 3.91609 3.00707 3.86562 3.12789C3.81515 3.24871 3.73968 3.35878 3.64362 3.45164C3.54756 3.54451 3.43285 3.61829 3.30623 3.66866C3.17961 3.71903 3.04362 3.74498 2.90625 3.74498C2.76888 3.74498 2.63289 3.71903 2.50627 3.66866C2.37965 3.61829 2.26494 3.54451 2.16888 3.45164C2.07282 3.35878 1.99735 3.24871 1.94688 3.12789C1.89641 3.00707 1.87198 2.87794 1.875 2.74806C1.88094 2.49314 1.99219 2.25055 2.18494 2.07225C2.37769 1.89394 2.63661 1.7941 2.90625 1.7941C3.17589 1.7941 3.43481 1.89394 3.62756 2.07225C3.82031 2.25055 3.93156 2.49314 3.9375 2.74806Z" fill="#A56FFF"/>
</svg>
