<svg width="12" height="12" viewBox="0 0 12 12" fill="none" xmlns="http://www.w3.org/2000/svg">
<path d="M5.27699 2.95043L3.58549 1.10405C3.39049 0.891276 3.03299 0.892222 2.80649 1.10688L1.41549 2.42465C1.00149 2.81662 0.882994 3.39867 1.12249 3.86535C2.5533 6.66683 4.94252 8.92936 7.90299 10.2863C8.39599 10.5128 9.01099 10.4008 9.42499 10.0088L10.829 8.67872C11.0565 8.46359 11.057 8.12362 10.83 7.93922L8.86999 6.34816C8.66499 6.18173 8.34649 6.20348 8.14099 6.39828L7.45899 7.04416C7.42408 7.07877 7.37812 7.10158 7.32817 7.10909C7.27822 7.11661 7.22704 7.10842 7.18249 7.08577C6.06772 6.47871 5.14299 5.6031 4.50249 4.54811C4.47851 4.50591 4.46982 4.45744 4.47777 4.41012C4.48572 4.36281 4.50986 4.31926 4.54649 4.28617L5.22649 3.64265C5.43249 3.4469 5.45499 3.14429 5.27699 2.94996V2.95043Z" fill="#A56FFF"/>
</svg>
