<svg width="12" height="16" viewBox="0 0 12 16" fill="none" xmlns="http://www.w3.org/2000/svg">
<path d="M6.772 6.97067C6.36244 6.42482 5.80707 6.11819 5.228 6.11819C4.64892 6.11819 4.09355 6.42482 3.684 6.97067L2.1395 9.02933C1.72994 9.57541 1.49985 10.3161 1.49985 11.0883C1.49985 11.8606 1.72994 12.6013 2.1395 13.1473C2.54906 13.6934 3.10454 14.0002 3.68375 14.0002C4.26295 14.0002 4.81844 13.6934 5.228 13.1473L6 12.118" stroke="#A56FFF" stroke-width="2" stroke-linecap="round" stroke-linejoin="round"/>
<path d="M5.228 9.02933C5.63755 9.57518 6.19292 9.88181 6.772 9.88181C7.35107 9.88181 7.90644 9.57518 8.316 9.02933L9.8605 6.97067C10.2701 6.42459 10.5001 5.68394 10.5001 4.91167C10.5001 4.13939 10.2701 3.39875 9.8605 2.85267C9.45094 2.30659 8.89545 1.9998 8.31625 1.9998C7.73704 1.9998 7.18156 2.30659 6.772 2.85267L6 3.882" stroke="#A56FFF" stroke-width="2" stroke-linecap="round" stroke-linejoin="round"/>
</svg>
